<svg width="120" height="74" viewBox="0 0 120 74" fill="none" xmlns="http://www.w3.org/2000/svg">
<circle cx="37" cy="37" r="4" fill="#F8B283"/>
<path d="M50.7298 30.076V43H62.3218V41.902H51.9718V36.862H61.2778V35.764H51.9718V31.174H62.3218V30.076H50.7298ZM64.8727 33.604H63.3427L67.6627 38.194L63.0727 43H64.5307L68.4007 38.914L72.1807 43H73.7287L69.1567 38.122L73.4407 33.604H71.9827L68.4007 37.42L64.8727 33.604ZM76.1906 40.984C76.8926 42.208 78.4046 43.18 80.3666 43.18C83.4626 43.18 85.4966 41.074 85.4966 38.302C85.4966 35.548 83.4626 33.424 80.3666 33.424C78.4046 33.424 76.8926 34.396 76.1906 35.638V33.604H75.0026V46.24H76.1906V40.984ZM76.1366 38.248C76.1366 35.8 78.2606 34.45 80.2406 34.45C82.5806 34.45 84.3446 35.98 84.3446 38.302C84.3446 40.642 82.5806 42.154 80.2406 42.154C78.2606 42.154 76.1366 40.822 76.1366 38.374V38.248ZM88.5305 30.076H87.3425V43H88.5305V30.076ZM95.6046 33.424C92.5806 33.424 90.3846 35.458 90.3846 38.302C90.3846 41.164 92.5806 43.18 95.6046 43.18C98.6106 43.18 100.807 41.164 100.807 38.302C100.807 35.458 98.6106 33.424 95.6046 33.424ZM95.6046 42.136C93.2826 42.136 91.5546 40.606 91.5546 38.302C91.5546 35.998 93.2826 34.468 95.6046 34.468C97.9086 34.468 99.6366 35.998 99.6366 38.302C99.6366 40.606 97.9086 42.136 95.6046 42.136ZM108.557 33.658C108.305 33.586 107.927 33.514 107.495 33.514C105.569 33.514 104.435 34.594 103.841 35.818V33.604H102.653V43H103.841V38.392C103.841 36.214 105.299 34.702 107.459 34.702C107.891 34.702 108.179 34.738 108.557 34.828V33.658ZM114.168 42.136C111.882 42.136 110.154 40.714 110.028 38.554H119.1V38.05C119.1 35.476 117.21 33.424 114.168 33.424C111.072 33.424 108.894 35.512 108.894 38.302C108.894 41.146 111.09 43.18 114.168 43.18C116.724 43.18 118.47 41.812 119.028 40.156L118.038 39.652C117.588 41.092 116.202 42.136 114.168 42.136ZM114.132 34.45C116.508 34.45 117.858 36.124 117.948 37.618H110.082C110.406 35.674 112.062 34.45 114.132 34.45Z" fill="white"/>
<circle cx="37" cy="37" r="36.5" stroke="white"/>
</svg>
